# xmcd CD database file
#
# Track frame offsets:
#	150
#	15312
#	31450
#	47927
#	62732
#	80735
#	101285
#	115670
#	129975
#	144185
#	158647
#	177017
#
# Disc length: 2565 seconds
#
# Revision: 0
# Processed by: cddbd v1.5PL3 Copyright (c) Steve Scherf et al.
# Submitted via: CDex 1.51
#
DISCID=8c0a030c
DTITLE=矢口博康 - さよならｔｏｄａｙ
DYEAR=1900
DGENRE=Jazz
TTITLE0=フェリーニ式マンボ
TTITLE1=Money Jungle
TTITLE2=Don't you honey me
TTITLE3=海の日の少女-A menina que nasceu no dia do mar
TTITLE4=It's good to say sayonara
TTITLE5=レクイエム
TTITLE6=Mascara Maracas
TTITLE7=がんばれハル
TTITLE8=運命と偶然
TTITLE9=Ninja
TTITLE10=永遠に存在する忍耐強い惑星
TTITLE11=鉄の船
EXTD=
EXTT0=
EXTT1=
EXTT2=
EXTT3=
EXTT4=
EXTT5=
EXTT6=
EXTT7=
EXTT8=
EXTT9=
EXTT10=
EXTT11=
PLAYORDER=
